<svg width="186" height="25" viewBox="0 0 186 25" fill="none" xmlns="http://www.w3.org/2000/svg">
<path d="M15.608 1.536V5.92H6.456V10.656H13.304V14.912H6.456V24H0.984V1.536H15.608ZM26.612 24.256C24.8627 24.256 23.284 23.8827 21.876 23.136C20.4893 22.3893 19.3907 21.3227 18.58 19.936C17.7907 18.5493 17.396 16.928 17.396 15.072C17.396 13.2373 17.8013 11.6267 18.612 10.24C19.4227 8.832 20.532 7.75467 21.94 7.008C23.348 6.26133 24.9267 5.888 26.676 5.888C28.4253 5.888 30.004 6.26133 31.412 7.008C32.82 7.75467 33.9293 8.832 34.74 10.24C35.5507 11.6267 35.956 13.2373 35.956 15.072C35.956 16.9067 35.54 18.528 34.708 19.936C33.8973 21.3227 32.7773 22.3893 31.348 23.136C29.94 23.8827 28.3613 24.256 26.612 24.256ZM26.612 19.52C27.6573 19.52 28.5427 19.136 29.268 18.368C30.0147 17.6 30.388 16.5013 30.388 15.072C30.388 13.6427 30.0253 12.544 29.3 11.776C28.596 11.008 27.7213 10.624 26.676 10.624C25.6093 10.624 24.724 11.008 24.02 11.776C23.316 12.5227 22.964 13.6213 22.964 15.072C22.964 16.5013 23.3053 17.6 23.988 18.368C24.692 19.136 25.5667 19.52 26.612 19.52ZM46.987 24.256C45.2377 24.256 43.659 23.8827 42.251 23.136C40.8643 22.3893 39.7657 21.3227 38.955 19.936C38.1657 18.5493 37.771 16.928 37.771 15.072C37.771 13.2373 38.1763 11.6267 38.987 10.24C39.7977 8.832 40.907 7.75467 42.315 7.008C43.723 6.26133 45.3017 5.888 47.051 5.888C48.8003 5.888 50.379 6.26133 51.787 7.008C53.195 7.75467 54.3043 8.832 55.115 10.24C55.9257 11.6267 56.331 13.2373 56.331 15.072C56.331 16.9067 55.915 18.528 55.083 19.936C54.2723 21.3227 53.1523 22.3893 51.723 23.136C50.315 23.8827 48.7363 24.256 46.987 24.256ZM46.987 19.52C48.0323 19.52 48.9177 19.136 49.643 18.368C50.3897 17.6 50.763 16.5013 50.763 15.072C50.763 13.6427 50.4003 12.544 49.675 11.776C48.971 11.008 48.0963 10.624 47.051 10.624C45.9843 10.624 45.099 11.008 44.395 11.776C43.691 12.5227 43.339 13.6213 43.339 15.072C43.339 16.5013 43.6803 17.6 44.363 18.368C45.067 19.136 45.9417 19.52 46.987 19.52ZM58.146 15.04C58.146 13.2053 58.4873 11.5947 59.17 10.208C59.874 8.82133 60.8233 7.75467 62.018 7.008C63.2127 6.26133 64.546 5.888 66.018 5.888C67.1913 5.888 68.258 6.13333 69.218 6.624C70.1993 7.11467 70.9673 7.776 71.522 8.608V0.32H76.994V24H71.522V21.44C71.01 22.2933 70.274 22.976 69.314 23.488C68.3753 24 67.2767 24.256 66.018 24.256C64.546 24.256 63.2127 23.8827 62.018 23.136C60.8233 22.368 59.874 21.2907 59.17 19.904C58.4873 18.496 58.146 16.8747 58.146 15.04ZM71.522 15.072C71.522 13.7067 71.138 12.6293 70.37 11.84C69.6233 11.0507 68.706 10.656 67.618 10.656C66.53 10.656 65.602 11.0507 64.834 11.84C64.0873 12.608 63.714 13.6747 63.714 15.04C63.714 16.4053 64.0873 17.4933 64.834 18.304C65.602 19.0933 66.53 19.488 67.618 19.488C68.706 19.488 69.6233 19.0933 70.37 18.304C71.138 17.5147 71.522 16.4373 71.522 15.072Z" fill="#F8C100"/>
<path d="M100.409 1.536V24H94.9368V14.752H86.4248V24H80.9528V1.536H86.4248V10.336H94.9368V1.536H100.409ZM121.191 14.784C121.191 15.296 121.159 15.8293 121.095 16.384H108.711C108.796 17.4933 109.148 18.3467 109.767 18.944C110.407 19.52 111.186 19.808 112.103 19.808C113.468 19.808 114.418 19.232 114.951 18.08H120.775C120.476 19.2533 119.932 20.3093 119.143 21.248C118.375 22.1867 117.404 22.9227 116.231 23.456C115.058 23.9893 113.746 24.256 112.295 24.256C110.546 24.256 108.988 23.8827 107.623 23.136C106.258 22.3893 105.191 21.3227 104.423 19.936C103.655 18.5493 103.271 16.928 103.271 15.072C103.271 13.216 103.644 11.5947 104.391 10.208C105.159 8.82133 106.226 7.75467 107.591 7.008C108.956 6.26133 110.524 5.888 112.295 5.888C114.023 5.888 115.559 6.25067 116.903 6.976C118.247 7.70133 119.292 8.736 120.039 10.08C120.807 11.424 121.191 12.992 121.191 14.784ZM115.591 13.344C115.591 12.4053 115.271 11.6587 114.631 11.104C113.991 10.5493 113.191 10.272 112.231 10.272C111.314 10.272 110.535 10.5387 109.895 11.072C109.276 11.6053 108.892 12.3627 108.743 13.344H115.591ZM122.99 15.04C122.99 13.2053 123.331 11.5947 124.014 10.208C124.718 8.82133 125.667 7.75467 126.862 7.008C128.056 6.26133 129.39 5.888 130.862 5.888C132.12 5.888 133.219 6.144 134.158 6.656C135.118 7.168 135.854 7.84 136.366 8.672V6.144H141.838V24H136.366V21.472C135.832 22.304 135.086 22.976 134.126 23.488C133.187 24 132.088 24.256 130.83 24.256C129.379 24.256 128.056 23.8827 126.862 23.136C125.667 22.368 124.718 21.2907 124.014 19.904C123.331 18.496 122.99 16.8747 122.99 15.04ZM136.366 15.072C136.366 13.7067 135.982 12.6293 135.214 11.84C134.467 11.0507 133.55 10.656 132.462 10.656C131.374 10.656 130.446 11.0507 129.678 11.84C128.931 12.608 128.558 13.6747 128.558 15.04C128.558 16.4053 128.931 17.4933 129.678 18.304C130.446 19.0933 131.374 19.488 132.462 19.488C133.55 19.488 134.467 19.0933 135.214 18.304C135.982 17.5147 136.366 16.4373 136.366 15.072ZM151.269 0.32V24H145.797V0.32H151.269ZM165.186 19.36V24H162.402C160.418 24 158.871 23.52 157.762 22.56C156.653 21.5787 156.098 19.9893 156.098 17.792V10.688H153.922V6.144H156.098V1.792H161.57V6.144H165.154V10.688H161.57V17.856C161.57 18.3893 161.698 18.7733 161.954 19.008C162.21 19.2427 162.637 19.36 163.234 19.36H165.186ZM179.21 5.952C181.258 5.952 182.901 6.63467 184.138 8C185.375 9.344 185.994 11.2 185.994 13.568V24H180.554V14.304C180.554 13.1093 180.245 12.1813 179.626 11.52C179.007 10.8587 178.175 10.528 177.13 10.528C176.085 10.528 175.253 10.8587 174.634 11.52C174.015 12.1813 173.706 13.1093 173.706 14.304V24H168.234V0.32H173.706V8.544C174.261 7.75467 175.018 7.12533 175.978 6.656C176.938 6.18667 178.015 5.952 179.21 5.952Z" fill="#F85900"/>
</svg>
