<svg width="106" height="964" viewBox="0 0 106 964" fill="none" xmlns="http://www.w3.org/2000/svg">
<rect width="106" height="964" rx="22" fill="url(#paint0_linear_3501_151)"/>
<path d="M35.2667 72L32 68.7333L55.9167 44.8167C55.2167 43.1833 55.1194 41.3361 55.625 39.275C56.1306 37.2139 57.2389 35.3667 58.95 33.7333C61.0111 31.6722 63.3056 30.4667 65.8333 30.1167C68.3611 29.7667 70.4222 30.3889 72.0167 31.9833C73.6111 33.5778 74.2333 35.6389 73.8833 38.1667C73.5333 40.6944 72.3278 42.9889 70.2667 45.05C68.6333 46.7611 66.7861 47.8694 64.725 48.375C62.6639 48.8806 60.8167 48.7833 59.1833 48.0833L56.2667 51L74 68.7333L70.7333 72L53 54.3833L35.2667 72ZM42.15 52.05L35.15 45.05C33.05 42.95 32 40.4417 32 37.525C32 34.6083 33.05 32.1 35.15 30L49.6167 44.5833L42.15 52.05Z" fill="white"/>
<g filter="url(#filter0_b_3501_151)">
<rect x="34" y="156" width="38" height="37" rx="4" fill="white" fill-opacity="0.34"/>
<path d="M47 183C46.1667 183 45.4583 182.708 44.875 182.125C44.2917 181.542 44 180.833 44 180V171H62V180C62 180.833 61.7083 181.542 61.125 182.125C60.5417 182.708 59.8333 183 59 183H47ZM44 170V168H50V167C50 166.717 50.0958 166.479 50.2875 166.287C50.4792 166.096 50.7167 166 51 166H55C55.2833 166 55.5208 166.096 55.7125 166.287C55.9042 166.479 56 166.717 56 167V168H62V170H44Z" fill="white"/>
</g>
<path d="M49 257C49.2833 257 49.5208 256.904 49.7125 256.713C49.9042 256.521 50 256.283 50 256C50 255.717 49.9042 255.479 49.7125 255.288C49.5208 255.096 49.2833 255 49 255C48.7167 255 48.4792 255.096 48.2875 255.288C48.0958 255.479 48 255.717 48 256C48 256.283 48.0958 256.521 48.2875 256.713C48.4792 256.904 48.7167 257 49 257ZM49 253C49.2833 253 49.5208 252.904 49.7125 252.713C49.9042 252.521 50 252.283 50 252C50 251.717 49.9042 251.479 49.7125 251.288C49.5208 251.096 49.2833 251 49 251C48.7167 251 48.4792 251.096 48.2875 251.288C48.0958 251.479 48 251.717 48 252C48 252.283 48.0958 252.521 48.2875 252.713C48.4792 252.904 48.7167 253 49 253ZM49 249C49.2833 249 49.5208 248.904 49.7125 248.713C49.9042 248.521 50 248.283 50 248C50 247.717 49.9042 247.479 49.7125 247.287C49.5208 247.096 49.2833 247 49 247C48.7167 247 48.4792 247.096 48.2875 247.287C48.0958 247.479 48 247.717 48 248C48 248.283 48.0958 248.521 48.2875 248.713C48.4792 248.904 48.7167 249 49 249ZM52 257H58V255H52V257ZM52 253H58V251H52V253ZM52 249H58V247H52V249ZM46 261C45.45 261 44.9792 260.804 44.5875 260.413C44.1958 260.021 44 259.55 44 259V245C44 244.45 44.1958 243.979 44.5875 243.588C44.9792 243.196 45.45 243 46 243H60C60.55 243 61.0208 243.196 61.4125 243.588C61.8042 243.979 62 244.45 62 245V259C62 259.55 61.8042 260.021 61.4125 260.413C61.0208 260.804 60.55 261 60 261H46Z" fill="white"/>
<path d="M43 339V337H63V339H43ZM44 336V329H47V336H44ZM49 336V324H52V336H49ZM54 336V327H57V336H54ZM59 336V321H62V336H59Z" fill="white"/>
<path d="M44 407V399H52V407H44ZM44 417V409H52V417H44ZM54 407V399H62V407H54ZM54 417V409H62V417H54Z" fill="white"/>
<path d="M45 494V492H47V485C47 483.617 47.4167 482.387 48.25 481.312C49.0833 480.237 50.1667 479.533 51.5 479.2V478.5C51.5 478.083 51.6458 477.729 51.9375 477.438C52.2292 477.146 52.5833 477 53 477C53.4167 477 53.7708 477.146 54.0625 477.438C54.3542 477.729 54.5 478.083 54.5 478.5V479.2C55.8333 479.533 56.9167 480.237 57.75 481.312C58.5833 482.387 59 483.617 59 485V492H61V494H45ZM53 497C52.45 497 51.9792 496.804 51.5875 496.413C51.1958 496.021 51 495.55 51 495H55C55 495.55 54.8042 496.021 54.4125 496.413C54.0208 496.804 53.55 497 53 497Z" fill="white"/>
<path d="M50.2502 577L49.8502 573.8C49.6335 573.717 49.4294 573.617 49.2377 573.5C49.046 573.383 48.8585 573.258 48.6752 573.125L45.7002 574.375L42.9502 569.625L45.5252 567.675C45.5085 567.558 45.5002 567.446 45.5002 567.338V566.663C45.5002 566.554 45.5085 566.442 45.5252 566.325L42.9502 564.375L45.7002 559.625L48.6752 560.875C48.8585 560.742 49.0502 560.617 49.2502 560.5C49.4502 560.383 49.6502 560.283 49.8502 560.2L50.2502 557H55.7502L56.1502 560.2C56.3669 560.283 56.571 560.383 56.7627 560.5C56.9544 560.617 57.1419 560.742 57.3252 560.875L60.3002 559.625L63.0502 564.375L60.4752 566.325C60.4919 566.442 60.5002 566.554 60.5002 566.663V567.338C60.5002 567.446 60.4835 567.558 60.4502 567.675L63.0252 569.625L60.2752 574.375L57.3252 573.125C57.1419 573.258 56.9502 573.383 56.7502 573.5C56.5502 573.617 56.3502 573.717 56.1502 573.8L55.7502 577H50.2502ZM53.0502 570.5C54.0169 570.5 54.8419 570.158 55.5252 569.475C56.2085 568.792 56.5502 567.967 56.5502 567C56.5502 566.033 56.2085 565.208 55.5252 564.525C54.8419 563.842 54.0169 563.5 53.0502 563.5C52.0669 563.5 51.2377 563.842 50.5627 564.525C49.8877 565.208 49.5502 566.033 49.5502 567C49.5502 567.967 49.8877 568.792 50.5627 569.475C51.2377 570.158 52.0669 570.5 53.0502 570.5Z" fill="white"/>
<path d="M42.1111 866C41.2556 866 40.5231 865.695 39.9139 865.086C39.3046 864.477 39 863.744 39 862.889V841.111C39 840.256 39.3046 839.523 39.9139 838.914C40.5231 838.305 41.2556 838 42.1111 838H53V841.111H42.1111V862.889H53V866H42.1111ZM59.2222 859.778L57.0833 857.522L61.05 853.556H48.3333V850.444H61.05L57.0833 846.478L59.2222 844.222L67 852L59.2222 859.778Z" fill="white"/>
<defs>
<filter id="filter0_b_3501_151" x="-66" y="56" width="238" height="237" filterUnits="userSpaceOnUse" color-interpolation-filters="sRGB">
<feFlood flood-opacity="0" result="BackgroundImageFix"/>
<feGaussianBlur in="BackgroundImageFix" stdDeviation="50"/>
<feComposite in2="SourceAlpha" operator="in" result="effect1_backgroundBlur_3501_151"/>
<feBlend mode="normal" in="SourceGraphic" in2="effect1_backgroundBlur_3501_151" result="shape"/>
</filter>
<linearGradient id="paint0_linear_3501_151" x1="53" y1="-208" x2="53" y2="1069" gradientUnits="userSpaceOnUse">
<stop offset="0.0543262" stop-color="#F85900"/>
<stop offset="1" stop-color="#FECB47"/>
</linearGradient>
</defs>
</svg>
