<svg width="28" height="33" viewBox="0 0 28 33" fill="none" xmlns="http://www.w3.org/2000/svg">
<path d="M0 28.05V24.75H3.5V13.2C3.5 10.9175 4.22917 8.88937 5.6875 7.11562C7.14583 5.34187 9.04167 4.18 11.375 3.63V2.475C11.375 1.7875 11.6302 1.20313 12.1406 0.721875C12.651 0.240625 13.2708 0 14 0C14.7292 0 15.349 0.240625 15.8594 0.721875C16.3698 1.20313 16.625 1.7875 16.625 2.475V3.63C18.9583 4.18 20.8542 5.34187 22.3125 7.11562C23.7708 8.88937 24.5 10.9175 24.5 13.2V24.75H28V28.05H0ZM14 33C13.0375 33 12.2135 32.6769 11.5281 32.0306C10.8427 31.3844 10.5 30.6075 10.5 29.7H17.5C17.5 30.6075 17.1573 31.3844 16.4719 32.0306C15.7865 32.6769 14.9625 33 14 33Z" fill="#B9B9B9"/>
</svg>
